<?xml version="1.0" standalone="no"?>
<!DOCTYPE svg PUBLIC "-//W3C//DTD SVG 20010904//EN"
 "http://www.w3.org/TR/2001/REC-SVG-20010904/DTD/svg10.dtd">
<svg version="1.0" xmlns="http://www.w3.org/2000/svg"
 width="512.000000pt" height="512.000000pt" viewBox="0 0 512.000000 512.000000"
 preserveAspectRatio="xMidYMid meet">
<metadata>
Created by potrace 1.14, written by Peter Selinger 2001-2017
</metadata>
<g transform="translate(0.000000,512.000000) scale(0.100000,-0.100000)"
fill="#000000" stroke="none">
<path d="M2365 4953 c-78 -6 -261 -36 -360 -59 -665 -155 -1242 -602 -1568
-1214 -120 -226 -231 -563 -253 -765 -2 -16 -6 -43 -9 -60 -10 -49 -13 -444
-5 -520 10 -86 19 -152 25 -185 3 -14 7 -36 10 -50 92 -500 394 -1023 780
-1349 195 -165 311 -241 550 -359 228 -113 526 -196 795 -221 92 -9 455 -7
495 2 11 2 47 8 80 13 33 4 62 8 65 9 7 1 69 14 99 20 321 62 715 252 998 479
171 138 368 354 491 539 169 253 305 584 357 867 3 14 7 36 10 50 24 124 33
255 30 435 -3 177 -5 199 -26 340 -123 813 -665 1514 -1426 1840 -153 66 -357
130 -483 151 -25 4 -47 8 -50 9 -3 1 -30 5 -60 9 -30 5 -64 10 -75 13 -24 5
-414 11 -470 6z m380 -107 c72 -6 141 -14 185 -22 14 -3 48 -9 75 -14 715
-138 1340 -632 1640 -1298 78 -172 147 -391 170 -542 4 -25 9 -54 11 -65 34
-183 36 -470 3 -685 -56 -375 -209 -735 -443 -1050 -91 -122 -314 -345 -436
-436 -470 -351 -1016 -508 -1600 -460 -86 7 -251 33 -295 46 -16 5 -41 11 -55
14 -165 31 -460 155 -646 272 -354 221 -611 496 -824 878 -129 233 -237 603
-257 885 -12 171 -6 423 12 511 3 14 7 43 10 65 9 67 53 239 89 348 174 521
535 962 1019 1249 188 111 464 219 657 257 86 17 95 19 147 27 26 3 57 8 68
10 11 2 65 7 120 10 55 4 101 8 102 9 4 3 171 -3 248 -9z"/>
<path d="M2350 4592 c-91 -13 -158 -61 -197 -140 -36 -74 -35 -151 2 -227 24
-50 89 -115 114 -115 17 0 13 -16 -19 -80 -30 -59 -30 -60 -30 -237 l0 -178
54 -60 54 -59 1 -119 c0 -66 -2 -117 -5 -114 -3 3 -57 83 -119 178 l-115 174
0 98 c0 93 1 98 24 108 54 25 35 109 -24 109 -15 0 -36 -7 -44 -16 -23 -22
-20 -70 5 -87 18 -13 20 -26 21 -118 l1 -103 129 -194 128 -194 -2 -70 c-2
-78 0 -78 -66 17 -16 22 -76 107 -135 188 -59 82 -105 152 -103 155 2 4 7 40
10 80 l7 72 -50 0 c-27 0 -52 3 -54 8 -3 4 -8 27 -11 52 -3 25 -12 80 -20 123
l-13 78 35 15 c123 51 185 186 145 318 -41 138 -225 216 -355 150 -81 -41
-148 -143 -148 -228 0 -136 111 -253 249 -261 l56 -4 21 -125 21 -126 -34 0
c-30 0 -33 2 -29 25 5 28 -22 67 -49 71 -68 10 -93 -86 -30 -114 19 -9 22 -17
20 -59 -2 -26 -3 -68 -4 -93 l-2 -45 -32 36 c-17 19 -55 62 -83 95 l-52 59 19
26 c10 15 23 38 29 53 5 14 13 26 17 25 40 -7 48 1 51 54 2 28 5 63 7 78 4 24
3 25 -43 24 -39 -1 -53 4 -81 28 -63 54 -125 68 -203 47 -46 -13 -111 -78
-125 -125 -15 -46 -9 -114 11 -154 l17 -31 -111 0 c-107 0 -110 -1 -111 -22
-1 -13 -3 -32 -4 -43 -1 -11 -5 -54 -8 -96 l-7 -75 55 1 c30 1 55 1 55 -1 0
-1 -8 -20 -18 -43 -23 -51 -21 -128 6 -179 25 -48 91 -98 141 -107 34 -6 40
-11 43 -33 l3 -27 92 0 c56 0 89 -4 85 -10 -3 -5 -15 -20 -26 -33 -62 -71 -31
-199 58 -239 63 -28 148 -14 185 31 10 11 31 16 71 16 53 0 58 -2 53 -20 -3
-11 -13 -26 -22 -33 -48 -35 -66 -104 -36 -143 8 -10 15 -22 15 -26 0 -5 -47
-8 -105 -8 l-105 0 -1 -27 c0 -16 -2 -35 -3 -43 -3 -14 -11 -93 -22 -230 -2
-30 -6 -73 -9 -95 -2 -22 -7 -80 -11 -130 -3 -49 -8 -97 -10 -105 -1 -8 -3
-32 -3 -53 -1 -34 -5 -39 -38 -53 -21 -8 -56 -23 -78 -33 -22 -10 -70 -30
-107 -46 -37 -15 -65 -32 -62 -36 3 -5 -1 -9 -9 -9 -23 0 -28 -105 -8 -150 20
-44 52 -60 122 -60 l56 0 13 48 c14 50 36 93 70 131 11 13 20 27 20 31 0 4 10
12 23 18 12 7 36 20 52 30 17 9 52 30 78 46 48 28 111 48 121 38 3 -3 -34 -31
-84 -63 -166 -108 -219 -173 -227 -284 -6 -74 17 -133 73 -188 152 -148 447
-69 514 137 30 92 8 184 -60 246 l-39 36 43 56 c45 57 65 68 103 59 21 -6 21
-7 -14 -63 l-36 -57 33 -50 c24 -38 33 -66 37 -111 l6 -60 513 0 c483 0 514 1
514 18 0 41 38 118 86 170 50 56 51 56 83 43 l32 -14 -33 -23 c-18 -13 -48
-46 -67 -74 -29 -42 -35 -60 -39 -123 -7 -114 33 -182 142 -240 33 -18 58 -22
131 -22 78 0 97 4 147 28 115 57 187 175 175 288 -9 80 -71 159 -155 195 -48
21 -166 26 -214 10 -30 -11 -42 -11 -70 1 l-33 15 50 21 c40 17 70 22 150 22
88 0 107 -4 155 -27 104 -49 164 -131 177 -238 l6 -50 178 0 c99 0 179 3 180
8 11 99 9 135 -11 161 -20 29 -73 55 -85 43 -6 -6 2 131 10 187 3 13 8 69 12
125 16 205 6 303 -40 386 -80 146 -200 231 -391 277 -12 3 -177 6 -368 7 -344
2 -348 1 -349 -19 0 -11 -2 -27 -4 -36 -1 -9 -6 -63 -10 -120 -4 -57 -9 -112
-11 -122 -1 -10 -6 -59 -9 -110 -3 -51 -8 -99 -10 -107 -2 -8 -7 -56 -10 -106
-7 -107 -9 -122 -17 -129 -2 -3 -39 10 -82 30 -67 30 -76 37 -72 57 3 13 8 59
11 103 4 44 8 94 10 110 2 17 7 66 10 110 15 190 15 189 41 209 58 43 67 121
18 167 -24 22 -25 28 -18 99 3 41 9 80 13 87 9 17 1 124 -9 118 -5 -3 -11 -1
-15 5 -4 6 -12 7 -18 3 -12 -7 -57 -13 -57 -7 0 2 55 58 122 124 l122 120 63
0 c52 0 65 -3 69 -17 18 -57 31 -80 65 -112 83 -83 214 -79 297 10 74 78 67
215 -14 291 -117 108 -308 47 -342 -109 -5 -23 -7 -44 -4 -48 3 -3 -28 -5 -69
-5 l-74 0 -77 -78 c-162 -163 -175 -174 -207 -177 -18 -1 -31 2 -31 9 0 6 28
40 61 76 33 36 90 99 127 140 127 141 120 135 150 124 57 -22 105 20 87 74 -6
21 -49 41 -76 35 -20 -5 -43 -47 -36 -66 3 -9 -15 -36 -46 -69 -57 -59 -206
-222 -255 -279 -17 -20 -30 -38 -28 -40 3 -2 -13 -4 -35 -4 -41 -1 -47 5 -26
27 7 7 37 42 66 77 29 35 58 70 64 76 7 6 31 34 54 61 49 58 54 63 216 251
l88 102 33 -20 c125 -73 286 11 299 157 13 147 -144 256 -279 195 -71 -32
-105 -81 -118 -169 -5 -37 16 -106 40 -134 15 -16 14 -20 -17 -60 -19 -23 -41
-50 -49 -58 -8 -9 -38 -43 -66 -75 -28 -33 -98 -114 -155 -181 -142 -165 -193
-225 -200 -236 -7 -11 -69 -19 -69 -9 0 3 37 52 83 107 45 56 127 157 183 225
116 142 120 149 128 207 4 31 15 52 36 72 46 43 36 92 -22 105 -54 13 -92 -67
-47 -99 19 -13 21 -20 14 -71 -5 -45 -15 -66 -49 -108 -23 -29 -91 -113 -151
-187 -60 -74 -129 -160 -154 -190 -25 -30 -47 -57 -48 -59 -5 -7 -103 -8 -102
-2 0 3 35 54 77 113 42 58 132 182 199 275 l122 170 16 99 c9 54 19 113 21
129 14 95 11 90 62 91 69 1 120 21 169 67 184 170 43 477 -204 443 -90 -12
-162 -66 -203 -152 -28 -60 -25 -156 8 -220 24 -47 81 -100 129 -120 18 -8 33
-18 33 -22 0 -26 -50 -304 -57 -315 -4 -8 -57 -82 -118 -166 -60 -84 -143
-198 -182 -254 l-73 -100 0 74 0 74 128 192 127 192 -2 101 c-1 76 2 103 12
106 7 3 19 19 25 35 25 60 -50 109 -94 60 -24 -26 -17 -73 12 -86 25 -11 24
-8 26 -125 l1 -85 -117 -178 -118 -179 0 121 0 121 48 51 c26 28 49 57 52 65
3 7 5 91 4 186 l-1 173 -31 62 -32 62 28 15 c42 22 97 87 117 140 35 91 5 209
-71 276 -58 51 -131 73 -204 62z m146 -566 c28 -59 29 -65 29 -231 l1 -170
-53 -61 -53 -61 -2 -234 -3 -234 -30 0 c-16 0 -32 3 -35 6 -3 4 -5 110 -4 236
1 125 -2 230 -5 233 -3 3 -27 29 -54 59 l-47 53 0 170 c0 168 0 171 29 232
l30 62 84 -1 85 0 28 -59z m-999 -441 c30 3 70 14 88 25 l33 20 25 -32 c14
-18 33 -42 43 -53 11 -11 46 -52 79 -90 33 -39 64 -75 70 -81 14 -15 50 -57
115 -134 30 -36 67 -78 82 -95 70 -80 88 -100 88 -105 0 -3 -36 -5 -80 -5
l-80 1 -136 136 c-111 112 -135 140 -129 157 6 20 3 21 -62 21 l-69 0 -13 35
c-24 66 -133 133 -202 123 -20 -2 -24 1 -23 22 1 14 2 44 3 67 l1 42 56 -29
c47 -25 63 -29 111 -25z m689 -347 c74 -104 134 -191 134 -196 0 -4 -21 -8
-46 -8 l-45 0 -127 155 c-70 85 -141 174 -159 197 l-32 41 51 -2 c43 -2 51 0
56 18 6 24 -14 49 168 -205z m-280 164 c7 -11 41 -52 74 -93 34 -41 67 -81 73
-89 7 -8 40 -50 75 -92 34 -42 62 -81 62 -86 0 -5 -11 -8 -25 -8 -20 1 -46 26
-107 96 -44 52 -94 111 -112 130 -86 98 -135 158 -130 163 12 12 77 -4 90 -21z
m-84 -239 c65 -64 118 -120 118 -123 0 -10 -215 -3 -242 8 -29 12 -29 29 -3
62 21 26 23 45 9 71 -14 25 -19 99 -7 99 3 0 60 -53 125 -117z m259 -728 c-2
-27 -4 -61 -5 -75 -2 -24 -5 -25 -80 -28 l-78 -2 5 69 c3 38 7 73 11 79 3 5
38 9 78 8 l73 -1 -4 -50z m834 -482 c52 -26 75 -43 75 -55 0 -16 -11 -13 -80
23 -44 22 -80 47 -80 55 0 19 -1 19 85 -23z m42 -85 c25 -12 34 -30 24 -46
-10 -17 -162 83 -155 102 5 13 15 10 57 -15 29 -17 62 -35 74 -41z m-1269 -33
c-2 -1 -48 -26 -103 -55 -55 -29 -104 -55 -110 -58 -12 -8 -95 -9 -95 -2 0 3
24 16 53 29 28 14 87 41 130 62 50 23 86 35 102 31 14 -2 25 -6 23 -7z m288
-4 c-3 -3 -24 -20 -48 -37 -30 -21 -50 -29 -66 -25 -21 6 -21 7 13 34 19 15
45 31 57 36 24 9 51 4 44 -8z m464 4 c6 -3 10 -28 10 -54 0 -26 4 -51 10 -57
6 -6 -20 -9 -71 -9 l-81 -1 6 45 c3 24 6 52 6 62 0 11 9 19 23 21 29 4 85 0
97 -7z m287 -60 l50 -61 -51 0 -51 1 -37 58 c-21 32 -38 61 -38 66 0 4 17 5
38 2 32 -5 48 -16 89 -66z m129 51 c39 -25 126 -98 122 -102 -9 -8 -68 -13
-66 -6 2 5 -25 33 -60 61 -58 49 -71 72 -38 67 7 -1 26 -10 42 -20z m-946
-219 c99 -76 38 -228 -96 -241 -185 -18 -203 225 -20 264 34 7 92 -5 116 -23z
m1745 -1 c28 -19 52 -62 50 -91 -1 -11 -2 -29 -3 -40 -2 -23 -36 -65 -72 -88
-63 -41 -173 -18 -204 42 -68 130 102 260 229 177z"/>
<path d="M1633 3489 c-40 -15 -51 -66 -20 -96 16 -16 41 -19 78 -9 22 6 32 0
69 -41 24 -26 83 -91 130 -143 48 -52 101 -111 118 -130 17 -19 32 -32 32 -29
0 7 -5 13 -99 118 -65 73 -110 121 -186 201 -29 31 -42 54 -42 73 0 47 -37 72
-80 56z"/>
<path d="M1820 3095 c30 -30 57 -55 59 -55 3 0 -19 25 -49 55 -30 30 -57 55
-59 55 -3 0 19 -25 49 -55z"/>
<path d="M838 3333 c-3 -10 -6 -46 -7 -80 l-2 -63 75 0 c54 0 76 4 77 13 0 6
2 21 4 31 2 10 5 40 7 65 l2 46 -76 3 c-66 2 -76 0 -80 -15z"/>
<path d="M3059 3182 c-19 -23 -22 -31 -12 -40 6 -7 15 -18 20 -26 4 -8 20 -17
35 -21 53 -13 91 61 50 98 -28 25 -64 21 -93 -11z"/>
<path d="M2975 3139 c-4 -6 -5 -12 -2 -15 2 -3 7 2 10 11 7 17 1 20 -8 4z"/>
<path d="M2940 3105 c-7 -9 -11 -17 -9 -20 3 -2 10 5 17 15 14 24 10 26 -8 5z"/>
<path d="M2905 3069 c-4 -6 -5 -12 -2 -15 2 -3 7 2 10 11 7 17 1 20 -8 4z"/>
<path d="M3075 3053 c-34 -8 -79 -48 -100 -89 -17 -31 -19 -48 -13 -83 32
-185 278 -196 318 -14 26 112 -87 214 -205 186z"/>
<path d="M1044 2952 c-5 -4 -10 -20 -10 -37 -1 -16 -5 -67 -8 -111 l-6 -81
116 1 c109 1 117 2 120 21 2 11 6 63 10 116 l6 97 -109 0 c-61 0 -114 -3 -119
-6z"/>
<path d="M1325 2625 c-3 -11 -6 -47 -7 -80 l-3 -59 74 1 c40 1 75 4 77 5 1 2
6 37 9 78 l6 75 -76 0 c-68 0 -76 -2 -80 -20z"/>
</g>
</svg>
